# xmcd
#
# Track frame offsets: 
#        150
#        14363
#        35864
#        51545
#        69536
#        90823
#
# Disc length: 1578 seconds
#
# Revision: 0
# Processed by: cddbd v1.5.2PL0 Copyright (c) Steve Scherf et al.
# Submitted via: ExactAudioCopyFreeDBPlugin 1.0
#
DISCID=4b062806
DTITLE=Vinicio Capossela - Marinai, Profeti e Balene [disc 2]
DYEAR=1900
DGENRE=
TTITLE0=L'oceano oilalà
TTITLE1=Il grande leviatano
TTITLE2=Goliath
TTITLE3=La bianchezza della balena
TTITLE4=I fuochi fatui
TTITLE5=Job
EXTD=
EXTT0=
EXTT1=
EXTT2=
EXTT3=
EXTT4=
EXTT5=
PLAYORDER=
